

[img]http://img541.imageshack.us/img541/8684/pimpo.png[/img]

[img]http://i.imgbox.com/achcZ2z5.png[/img]

[img]http://www.boomerangshop.com/dvdcover/imageweb64/JarheadBluray277_f.jpg[/img]





[code]General
Inglourious Bastards 2009 BRRip x264
Format                                   : MPEG-4
Format profile                           : Base Media / Version 2
Codec ID                                 : mp42
File size                                : 459 MiB
Duration                                 : 2h 32mn
Overall bit rate mode                    : Variable
Overall bit rate                         : 419 Kbps
Encoded date                             : UTC 2013-04-24 01:11:47
Tagged date                              : UTC 2013-04-24 02:03:48
Writing application                      : HandBrake 0.9.8 2012071700

Video
ID                                       : 1
Format                                   : AVC
Format/Info                              : Advanced Video Codec
Format profile                           : Main@L3.0
Format settings, CABAC                   : Yes
Format settings, ReFrames                : 4 frames
Codec ID                                 : avc1
Codec ID/Info                            : Advanced Video Coding
Duration                                 : 2h 32mn
Bit rate mode                            : Variable
Bit rate                                 : 350 Kbps
Width                                    : 720 pixels
Height                                   : 304 pixels
Display aspect ratio                     : 2.40:1
Original display aspect ratio            : 2.40:1
Frame rate mode                          : Variable
Frame rate                               : 23.976 fps
Minimum frame rate                       : 7.992 fps
Maximum frame rate                       : 23.981 fps
Color space                              : YUV
Chroma subsampling                       : 4:2:0
Bit depth                                : 8 bits
Scan type                                : Progressive
Bits/(Pixel*Frame)                       : 0.067
Stream size                              : 383 MiB (83%)
Encoded date                             : UTC 2013-04-24 01:11:47
Tagged date                              : UTC 2013-04-24 02:03:48
Color primaries                          : BT.709
Transfer characteristics                 : BT.709
Matrix coefficients                      : BT.709

Audio
ID                                       : 2
Format                                   : AAC
Format/Info                              : Advanced Audio Codec
Format profile                           : LC
Codec ID                                 : 40
Duration                                 : 2h 32mn
Bit rate mode                            : Variable
Bit rate                                 : 64.1 Kbps
Maximum bit rate                         : 118 Kbps
Channel(s)                               : 2 channels
Channel positions                        : Front: L R
Sampling rate                            : 48.0 KHz
Compression mode                         : Lossy
Delay relative to video                  : 167ms
Stream size                              : 70.2 MiB (15%)
Encoded date                             : UTC 2013-04-24 01:11:47
Tagged date               